# xmcd
# 
# Track frame offsets:
#     183
#     32853
#     63558
#     80583
#     133308
#     158558
#     195758
# 
# Disc length: 3365
# 
# Revision: 0
# Processed by: cddbd v1.5.2PL0 Copyright (c) Steve Scherf et al.
# Submitted via: BonkEnc v1.0.8
# 
DISCID=570d2307
DTITLE=Miles Davis  - [1989.04.11] Miles 1989 - Milano, Italy
DYEAR=1989
DGENRE=Fusion
TTITLE0=Jilli
TTITLE1=Hannibal
TTITLE2=Intruder
TTITLE3=Star People
TTITLE4=Perfect Way
TTITLE5=Mr. Pastorius
TTITLE6=Human Nature
EXTD=YEAR: 1989
EXTT0=
EXTT1=
EXTT2=
EXTT3=
EXTT4=
EXTT5=
EXTT6=
PLAYORDER=
